<?xml version="1.0" encoding="UTF-8" standalone="no"?>
<!-- Created with Inkscape (http://www.inkscape.org/) -->

<svg
   xmlns:dc="http://purl.org/dc/elements/1.1/"
   xmlns:cc="http://creativecommons.org/ns#"
   xmlns:rdf="http://www.w3.org/1999/02/22-rdf-syntax-ns#"
   xmlns:svg="http://www.w3.org/2000/svg"
   xmlns="http://www.w3.org/2000/svg"
   xmlns:sodipodi="http://sodipodi.sourceforge.net/DTD/sodipodi-0.dtd"
   xmlns:inkscape="http://www.inkscape.org/namespaces/inkscape"
   id="svg2"
   version="1.1"
   inkscape:version="0.48.4 r9939"
   width="800"
   height="800"
   sodipodi:docname="politica-colaborativa.svg"
   inkscape:export-filename="C:\Users\Alan\Desktop\Logo de Política Colaborativa\politica-colaborativa.png"
   inkscape:export-xdpi="57.599998"
   inkscape:export-ydpi="57.599998">
  <metadata
     id="metadata8">
    <rdf:RDF>
      <cc:Work
         rdf:about="">
        <dc:format>image/svg+xml</dc:format>
        <dc:type
           rdf:resource="http://purl.org/dc/dcmitype/StillImage" />
        <dc:title></dc:title>
      </cc:Work>
    </rdf:RDF>
  </metadata>
  <defs
     id="defs6">
    <clipPath
       clipPathUnits="userSpaceOnUse"
       id="clipPath3836">
      <rect
         style="opacity:0.52272728;fill:#ffffff;fill-opacity:1;stroke:#ff0000;stroke-width:2;stroke-miterlimit:4;stroke-opacity:1;stroke-dasharray:none"
         id="rect3838"
         width="764.61517"
         height="764.61517"
         x="46.376431"
         y="-168.67583"
         rx="45.358643"
         ry="47.500511" />
    </clipPath>
    <clipPath
       clipPathUnits="userSpaceOnUse"
       id="clipPath3868">
      <rect
         style="opacity:0.52272728;fill:#ffffff;fill-opacity:1;stroke:#ff0000;stroke-width:2;stroke-miterlimit:4;stroke-opacity:1;stroke-dasharray:none"
         id="rect3870"
         width="755.58057"
         height="755.58057"
         x="34.859863"
         y="-105.9173"
         rx="45.359005"
         ry="47.500511" />
    </clipPath>
    <clipPath
       clipPathUnits="userSpaceOnUse"
       id="clipPath4129">
      <rect
         style="fill:#323131;fill-opacity:1;stroke:none"
         id="rect4131"
         width="1030.8354"
         height="1030.8354"
         x="-61.041523"
         y="-191.64384"
         rx="73.543198"
         ry="88.512863"
         clip-path="none" />
    </clipPath>
    <clipPath
       clipPathUnits="userSpaceOnUse"
       id="clipPath4174">
      <rect
         ry="88.512871"
         rx="73.543198"
         y="-139.45116"
         x="8.8981657"
         height="842.0459"
         width="899.84875"
         id="rect4176"
         style="fill:none;stroke:#e43030;stroke-width:4.5;stroke-miterlimit:4;stroke-opacity:1;stroke-dasharray:none" />
    </clipPath>
    <clipPath
       clipPathUnits="userSpaceOnUse"
       id="clipPath3088">
      <rect
         style="fill:none;stroke:#e43030;stroke-width:4.5;stroke-miterlimit:4;stroke-opacity:1;stroke-dasharray:none"
         id="rect3090"
         width="786.17865"
         height="786.17865"
         x="-184.32454"
         y="-110.26035"
         rx="73.543198"
         ry="88.512871" />
    </clipPath>
    <clipPath
       clipPathUnits="userSpaceOnUse"
       id="clipPath3978">
      <path
         inkscape:connector-curvature="0"
         id="path3980"
         d="m 51.27808,-204.88962 c -1.09578,0 -2.23359,0.0316 -3.32681,0.093 -8.74505,0.49217 -17.29746,3.113 -24.31836,7.77823 -2.63284,1.74938 -5.04676,3.77006 -7.16895,6.09119 -2.13194,2.32744 -3.96465,4.9301 -5.43534,7.82509 -0.2443,0.48078 -0.47927,0.95614 -0.70284,1.45253 -0.67837,1.50043 -1.2096,3.04379 -1.68691,4.68566 -1.18557,4.07816 -1.94562,7.66804 -2.15537,11.05807 -0.0525,0.84743 -0.0631,1.65327 -0.0465,2.48329 0.11705,6.65784 2.48314,12.87651 7.8251,21.36645 0.66619,1.05884 1.34787,2.14651 2.10851,3.27998 1.5267,2.27653 3.22863,4.71643 5.15411,7.35648 1.75389,2.40461 3.10506,4.58836 4.07652,6.60664 0.24293,0.50465 0.4617,0.96965 0.656,1.45253 0.39623,0.97971 0.69292,1.91423 0.89022,2.81136 0.0976,0.44279 0.18512,0.84098 0.23437,1.26515 0.40826,3.4136 -0.74818,6.20469 -3.4205,8.71531 -0.81456,0.765 -1.60358,1.45959 -2.48345,2.06168 -6.1589,4.21434 -16.64881,4.71719 -69.72208,5.52903 l -58.47648,0.89008 0,59.226316 c 0,46.857309 0.0541,56.784166 1.78044,62.553138 0.13213,0.443835 0.26847,0.85569 0.42177,1.265143 0.31006,0.833319 0.62702,1.609281 1.03077,2.48329 1.74817,3.783721 3.63838,6.32121 5.9508,7.590713 0.46245,0.253896 0.90434,0.457343 1.40568,0.609292 0.25074,0.07655 0.53513,0.13664 0.79653,0.187396 0.52296,0.100569 1.06995,0.142634 1.64006,0.141138 0.28499,-0.0011 0.54549,-0.01955 0.84338,-0.04652 1.19112,-0.108106 2.51272,-0.41456 3.93582,-0.937072 0.7117,-0.261256 1.47145,-0.571454 2.24921,-0.937225 1.55538,-0.731211 3.2076,-1.658827 5.06042,-2.811357 0.92641,-0.576118 1.89622,-1.192028 2.90506,-1.874297 2.01798,-1.364087 4.22605,-2.941238 6.6068,-4.732349 l 11.62037,-8.762162 13.58821,0 c 12.22305,0 14.35005,0.423266 20.80414,4.217196 2.24951,1.322199 4.29963,2.881181 6.18503,4.591813 0.62852,0.57011 1.23992,1.172352 1.82745,1.780601 3.52532,3.64949 6.31701,7.953016 8.3404,12.65113 0.33723,0.783026 0.64248,1.539462 0.93706,2.342909 0,0.01496 0,0.03297 0,0.04652 0.2889,0.789786 0.5958,1.582858 0.84338,2.389755 0.25706,0.834666 0.49039,1.679694 0.70285,2.529992 0.209,0.836173 0.39669,1.634803 0.5623,2.483588 2.9998,15.286226 -1.04727,32.389987 -12.79167,43.90435 -5.1885,5.086706 -11.01558,8.295959 -17.94594,9.792932 -2.52023,0.544287 -5.16598,0.830615 -8.01247,0.937072 -0.71156,0.02697 -1.4213,0.04652 -2.15537,0.04652 -3.41031,0 -5.98368,-0.06312 -8.29356,-0.46846 -0.92386,-0.162606 -1.84306,-0.378665 -2.71767,-0.656137 -0.43723,-0.138136 -0.87341,-0.295796 -1.31199,-0.468472 -0.87686,-0.345633 -1.73465,-0.761994 -2.67068,-1.265134 -2.80835,-1.509587 -6.03998,-3.820806 -10.6833,-7.262793 -1.12114,-0.831062 -2.1959,-1.610933 -3.23312,-2.342745 -2.07414,-1.464094 -3.99633,-2.725178 -5.76326,-3.795439 -1.76695,-1.07025 -3.42188,-1.944107 -4.9199,-2.623974 -1.49802,-0.679725 -2.8558,-1.15989 -4.12335,-1.452377 -0.63377,-0.145649 -1.24397,-0.231073 -1.82745,-0.281382 -1.45838,-0.126123 -2.74019,0.04499 -3.93581,0.515612 -2.63059,1.036463 -4.71419,3.482521 -6.65364,7.356332 -0.17642,0.352392 -0.35885,0.725959 -0.51546,1.077751 0,0.01507 0,0.0345 0,0.04652 -0.15015,0.339026 -0.28858,0.667549 -0.42162,1.030905 -0.0211,0.06312 -0.0256,0.121625 -0.0465,0.187537 -1.87895,5.315224 -2.10132,14.746004 -2.48344,63.443064 -0.0645,8.21893 -0.11706,16.10333 -0.14114,23.33459 0,2.0309 0,3.51615 0,5.43534 -0.0781,10.40223 -0.14414,17.53109 -0.23423,30.64377 -0.87986,127.23762 -0.88332,127.02021 -8.38725,134.52429 -4.86688,4.86688 -8.83363,3.83791 -21.83506,-5.62273 -14.69944,-10.69622 -18.83555,-12.52606 -28.16062,-12.55744 -26.30871,-0.0886 -43.50451,17.19881 -43.48259,43.76367 0.015,12.73206 1.80027,19.27084 7.87194,28.30116 6.06101,9.01441 15.93832,15.16446 27.27025,17.00872 12.96615,2.11048 20.10777,-0.0961 34.4862,-10.54261 14.71431,-10.69051 19.71497,-12.14694 24.22466,-7.16895 6.76774,7.47045 7.173,10.89231 7.73124,71.68992 0.47161,51.35062 0.76425,57.934 2.95206,59.60109 3.09394,2.35776 88.87912,2.61572 108.84694,0.32807 27.89833,-3.1962 30.90233,-11.52909 12.46376,-34.95466 C 8.30772,486.10417 5.79904,478.24424 7.09271,467.2156 10.90197,434.74393 51.7951,418.85426 79.8137,438.96128 c 8.12508,5.83082 12.90774,13.65501 15.27512,24.9742 2.57757,12.32486 0.0541,20.77711 -9.98047,33.87719 -13.17485,17.20091 -13.89781,24.53713 -2.90505,29.7537 9.85329,4.6756 32.76535,5.46507 130.44777,4.49827 48.63491,-0.48152 77.4691,-0.53092 95.49296,0.13964 0.03,10e-4 0.0645,-0.001 0.093,0 0.16816,0 0.30225,0.0405 0.46846,0.0465 2.21874,0.10811 4.35668,0.19339 6.32556,0.32792 0.31607,0.0225 0.62748,0.0705 0.93723,0.0931 3.81585,0.27552 7.19582,0.59218 10.12085,0.98392 0.0872,0.0149 0.19429,0.0345 0.28122,0.0465 1.47146,0.20133 2.86062,0.42175 4.12336,0.65584 0.0585,0.0149 0.12913,0.036 0.18739,0.0465 1.26904,0.2395 2.44484,0.47462 3.51419,0.74969 0.603,0.156 1.09654,0.3479 1.63992,0.51546 0.22447,0.0796 0.48723,0.15255 0.70299,0.23423 0.73317,0.27823 1.40614,0.57942 2.06153,0.89038 2.41106,1.14397 4.17905,2.45296 5.29481,4.02966 0.0765,0.12912 0.16621,0.24188 0.23423,0.37476 0.0376,0.0601 0.0571,0.12613 0.093,0.18754 0.22026,0.4617 0.38947,0.95029 0.51544,1.45238 0.3943,1.57099 0.54324,3.04589 0.37493,4.59211 -0.63933,3.58252 -2.8968,7.99972 -6.88788,13.54137 -0.64052,0.8737 -1.27189,1.74831 -2.01482,2.71766 -4.18342,5.45832 -8.57418,12.18913 -9.74609,14.99405 -4.56643,10.92909 -1.37339,30.03086 6.65349,39.734 5.17889,6.26041 17.06158,13.04152 26.05212,14.90035 l 0,0.0465 c 0.95433,0.1973 1.90252,0.34698 2.90506,0.46876 6.0158,0.72956 12.80743,0.0976 19.25792,-1.49937 3.22517,-0.79894 6.36311,-1.83961 9.27747,-3.09274 5.82888,-2.50597 10.77444,-5.8403 13.68205,-9.65225 0.70329,-0.9219 1.38781,-1.85206 2.01483,-2.81135 0.63468,-0.97117 1.17761,-1.94862 1.73376,-2.95206 0.55014,-0.99082 1.0731,-1.98239 1.54622,-2.99874 0.47956,-1.02987 0.91214,-2.04262 1.31198,-3.09245 0.39549,-1.03586 0.76005,-2.04351 1.07761,-3.09258 3.49319,-11.5411 2.25552,-23.72542 -4.02966,-32.51822 -12.12967,-16.96878 -16.19867,-22.97784 -15.64988,-26.98917 0.0465,-0.36471 0.11412,-0.69339 0.23438,-1.03077 0.47912,-1.35028 1.50613,-2.53705 2.95175,-3.98282 1.71994,-1.72009 3.47157,-3.06707 6.04464,-4.12335 1.28631,-0.52822 2.77412,-0.96019 4.59166,-1.35884 3.64274,-0.79908 8.54851,-1.35523 15.6032,-1.78059 1.75792,-0.10658 3.63326,-0.23724 5.66972,-0.32808 10.1821,-0.45284 24.02211,-0.69474 43.15452,-0.98391 l 56.9771,-0.89023 0,-57.72694 c 0,-19.58076 -0.0556,-32.66251 -0.23423,-41.79569 -0.0585,-3.04349 -0.13963,-5.62198 -0.23423,-7.87194 -0.37717,-8.99909 -1.05508,-12.37126 -2.29605,-15.9311 -0.25451,-0.73002 -0.48528,-1.40824 -0.74969,-2.06168 -0.2587,-0.64098 -0.52627,-1.21185 -0.79653,-1.7803 -1.08167,-2.27384 -2.29607,-3.96254 -3.65475,-5.10742 -0.67941,-0.57251 -1.38,-1.01139 -2.15536,-1.31199 -2.32639,-0.90209 -5.10923,-0.62297 -8.62164,0.79668 -1.1707,0.47296 -2.457,1.0632 -3.79527,1.7803 -0.82026,0.43963 -1.74651,1.01095 -2.76452,1.64006 -2.03631,1.25824 -4.33026,2.82353 -6.37256,4.31074 -1.02101,0.74383 -1.98511,1.43992 -2.81137,2.10852 -1.21979,0.98752 -2.37803,1.91153 -3.46735,2.71783 -2.72338,2.01528 -5.10908,3.48161 -7.49687,4.54496 -0.9554,0.42537 -1.92685,0.77581 -2.90521,1.07776 -0.97836,0.30179 -1.95342,0.55464 -2.99874,0.74969 -0.52267,0.0976 -1.04534,0.16036 -1.59307,0.23423 -1.09548,0.14715 -2.23915,0.26231 -3.46737,0.32808 -1.22835,0.0661 -2.57773,0.093 -3.98281,0.093 -1.45402,0 -2.86992,-0.0661 -4.26389,-0.18738 -1.39396,-0.12163 -2.74604,-0.27569 -4.07665,-0.51532 -2.66092,-0.47972 -5.20336,-1.22295 -7.59056,-2.15552 -1.19368,-0.46621 -2.34726,-0.97175 -3.46751,-1.54606 -2.24021,-1.14908 -4.30534,-2.51482 -6.23174,-4.07666 -0.48167,-0.39038 -0.99157,-0.80299 -1.45267,-1.2183 -2.77518,-2.49965 -5.14886,-5.41808 -7.1221,-8.76202 -0.98452,-1.66483 -1.85537,-3.39032 -2.62398,-5.2478 -1.02461,-2.47683 -1.81919,-5.12273 -2.43644,-7.91878 -0.30856,-1.39803 -0.59489,-2.83795 -0.79653,-4.31075 -0.20165,-1.47295 -0.33018,-3.00084 -0.42162,-4.54511 -0.3512,-5.92393 -0.18333,-10.73224 0.65585,-15.08759 0.12011,-0.62235 0.22717,-1.22249 0.37476,-1.82743 0.44339,-1.815 1.02311,-3.56856 1.73376,-5.29481 0.23693,-0.57536 0.48137,-1.1608 0.74968,-1.73376 0.54188,-1.15689 1.15148,-2.29771 1.82745,-3.46735 0.6683,-1.15824 1.39532,-2.31393 2.20222,-3.51421 0.74698,-1.11094 1.57114,-2.15883 2.43659,-3.18628 0.42507,-0.50449 0.8605,-1.01635 1.31199,-1.49938 0,-0.0151 -0.015,-0.0391 0,-0.0465 0.4599,-0.49114 0.96679,-0.93783 1.45253,-1.40569 1.94275,-1.87083 4.08101,-3.5573 6.37257,-5.01343 0.57265,-0.36425 1.14276,-0.69533 1.73359,-1.03106 0.59069,-0.33558 1.17341,-0.67762 1.78045,-0.98392 1.82114,-0.91874 3.72983,-1.70627 5.66973,-2.34275 1.29307,-0.42431 2.60551,-0.78887 3.93582,-1.07761 0.66515,-0.14414 1.34277,-0.26591 2.01483,-0.37492 1.5249,-0.24729 2.98238,-0.40645 4.40443,-0.51545 0.715,-0.0541 1.41424,-0.12312 2.10852,-0.14114 0.0165,-3e-4 0.0316,4.5e-4 0.0465,0 0.67807,-0.0165 1.35373,-0.0195 2.01483,0 0.0149,4.5e-4 0.0316,-4.6e-4 0.0465,0 0.67642,0.0211 1.35344,0.0825 2.01484,0.14114 0.64577,0.0571 1.28675,0.13963 1.92113,0.23423 0.0149,0 0.0316,0 0.0465,0 0.63392,0.0946 1.24878,0.19564 1.87415,0.32807 0.03,0 0.0645,0 0.093,0 0.6108,0.13063 1.22249,0.30075 1.82759,0.46861 0.36576,0.1021 0.7129,0.21246 1.07777,0.32792 0.27867,0.0871 0.565,0.18544 0.84322,0.28123 0.015,0 0.0331,0 0.0465,0 0.23859,0.0825 0.46456,0.19264 0.70284,0.28093 0.37823,0.13963 0.74639,0.26651 1.12461,0.42175 0.17177,0.0705 0.34354,0.16036 0.51546,0.23439 0.45705,0.19594 0.90043,0.39069 1.35868,0.60915 0.045,0.0211 0.0961,0.0255 0.14114,0.0465 0.18603,0.0901 0.37582,0.18784 0.56231,0.28137 0.40419,0.20211 0.81154,0.38903 1.21828,0.609 0.0496,0.027 0.0901,0.0661 0.13965,0.093 0.59022,0.32207 1.18346,0.67101 1.78074,1.03092 0.0496,0.03 0.0916,0.063 0.14114,0.093 0.59954,0.36396 1.21815,0.72176 1.8273,1.12446 0.20315,0.13362 0.40466,0.28348 0.60915,0.42176 0.45856,0.31111 0.89352,0.65074 1.35899,0.98392 0.0751,0.0541 0.1581,0.0856 0.23408,0.14114 0.60074,0.43347 1.21319,0.88797 1.82759,1.35883 0.081,0.0616 0.1521,0.12463 0.23409,0.18739 1.52745,1.17069 2.97847,2.2432 4.35758,3.23297 5.74284,4.16405 10.06859,6.78367 13.44782,7.87179 0.52972,0.17072 1.05778,0.27463 1.54621,0.37492 0.97687,0.2009 1.8791,0.25871 2.71783,0.18739 0.66245,-0.0556 1.27761,-0.20225 1.87413,-0.42162 1.71185,-0.50495 3.13704,-1.63586 4.35759,-3.37367 1.90703,-2.18765 3.21316,-4.5759 4.12335,-11.05807 0.0195,-0.1021 0.0271,-0.22462 0.0465,-0.32807 0.0255,-0.18948 0.0691,-0.31876 0.0931,-0.51531 0.4635,-2.52082 0.84879,-5.41807 1.1713,-8.9494 0.11861,-1.29816 0.22627,-2.66076 0.32806,-4.12335 0.61096,-8.78377 0.9542,-20.63838 1.07761,-37.25085 0.0405,-5.5301 0.0436,-11.58901 0.0465,-18.22702 l 0.0465,-50.6047 0,-1.54622 -0.14114,0 c 0,-0.50885 0,-0.84608 0,-1.35898 l 0.89022,-119.202181 3.37368,-6.325568 c 5.84239,-10.934947 11.92411,-10.310935 29.70685,3.092598 11.6028,8.745341 15.01805,9.980305 27.41094,9.980305 12.01646,0 23.64104,-4.959075 29.47246,-12.60429 23.91912,-31.359518 6.13685,-75.685947 -30.40953,-75.813422 -11.40746,-0.04053 -16.01339,1.792912 -29.47262,11.807757 -5.70516,4.244973 -12.07847,8.148213 -14.15066,8.668464 -3.79123,0.951635 -7.16084,-0.215462 -9.88662,-3.279974 -0.27252,-0.306453 -0.53782,-0.639933 -0.79654,-0.983917 -0.2587,-0.344138 -0.50554,-0.69653 -0.74969,-1.077763 -0.24413,-0.381221 -0.52055,-0.800279 -0.74967,-1.218148 -0.68723,-1.254177 -1.28692,-2.687486 -1.82745,-4.264035 -2.22639,-6.494334 -2.56693,-14.660261 -2.62399,-63.162136 -0.036,-30.65142 -0.48347,-56.79722 -0.98392,-58.10171 -0.80748,-2.10416 -7.20828,-2.38974 -56.8834,-2.38974 -15.04539,0 -26.91786,0.0601 -36.3135,0.23438 -2.34905,0.0435 -4.50503,0.0811 -6.55995,0.14113 -22.60547,0.6593 -28.1827,2.41183 -32.42452,6.65364 -4.58851,4.58851 -3.79498,8.65331 3.84213,19.72639 14.7598,21.400083 14.56372,20.94934 14.43173,32.377824 -0.10964,9.526865 -1.56859,15.618052 -5.81025,21.88176 -0.3533,0.521913 -0.73183,1.019952 -1.12446,1.546369 -1.17791,1.578652 -2.56348,3.227423 -4.12336,4.919736 -5.92347,6.426167 -12.55249,10.36679 -20.85099,12.229371 -0.75434,0.169517 -1.56063,0.333779 -2.34275,0.468761 -2.34636,0.404648 -4.7834,0.645035 -7.40333,0.749687 -0.87326,0.03454 -1.76438,0.04354 -2.67068,0.04654 -9.94262,0.02853 -12.79948,-0.584824 -21.3196,-4.779346 -16.41805,-8.082596 -24.41205,-21.590023 -23.14706,-39.078013 0.63978,-8.845345 3.07533,-13.931445 14.00998,-29.191539 11.27172,-15.73006 8.78017,-22.20142 -10.54262,-27.41079 -2.47398,-0.66696 -56.78972,-1.20329 -120.70155,-1.2183 l -98.02324,-0.0466 c -6.05921,-0.14114 -10.70763,-0.30345 -13.91628,-0.56231 -0.89759,-0.0721 -1.69442,-0.14864 -2.4366,-0.23408 -4.45263,-0.5126 -6.36866,-1.29141 -8.94955,-2.48344 -5.97257,-2.75851 -9.08903,-5.73969 -9.32432,-9.93346 -0.0149,-0.27958 -0.0571,-0.55269 -0.0465,-0.84353 0.1596,-4.65172 3.62846,-10.783 10.40207,-19.58585 3.24695,-4.21975 5.41417,-7.28802 6.88787,-10.16785 0.24549,-0.47807 0.49549,-0.93557 0.70284,-1.40568 1.86574,-4.23101 2.21228,-8.30091 2.20222,-15.22827 -0.0149,-6.44733 -0.70284,-10.83074 -2.62398,-15.55619 -0.27267,-0.67296 -0.56771,-1.3222 -0.89023,-2.01483 -1.45838,-3.13193 -3.26646,-5.94434 -5.3885,-8.43409 -2.11242,-2.48329 -4.54346,-4.61223 -7.16894,-6.46626 -0.87521,-0.61785 -1.74952,-1.2318 -2.67082,-1.78045 -1.84262,-1.09727 -3.76856,-2.03644 -5.76328,-2.8582 -4.98715,-2.05462 -10.37309,-3.24829 -15.83741,-3.6079 -1.09292,-0.0721 -2.18434,-0.13514 -3.27997,-0.14114 z"
         style="opacity:0.43181817;fill:#868686" />
    </clipPath>
  </defs>
  <sodipodi:namedview
     pagecolor="#ffffff"
     bordercolor="#666666"
     borderopacity="1"
     objecttolerance="10"
     gridtolerance="10"
     guidetolerance="10"
     inkscape:pageopacity="0"
     inkscape:pageshadow="2"
     inkscape:window-width="1280"
     inkscape:window-height="725"
     id="namedview4"
     showgrid="false"
     inkscape:zoom="0.086047666"
     inkscape:cx="2799.6226"
     inkscape:cy="156.25956"
     inkscape:window-x="-9"
     inkscape:window-y="-9"
     inkscape:window-maximized="1"
     inkscape:current-layer="layer2"
     inkscape:snap-bbox="true"
     inkscape:snap-global="false" />
  <g
     inkscape:groupmode="layer"
     id="layer1"
     inkscape:label="Fundo"
     style="display:inline"
     transform="translate(0,139)" />
  <g
     inkscape:groupmode="layer"
     id="layer2"
     inkscape:label="Vetor"
     transform="translate(0,139)"
     style="display:inline;opacity:1">
    <g
       transform="matrix(1.0461366,0,0,1.0461366,1089.5569,-1053.005)"
       clip-path="url(#clipPath3868)"
       id="g3885">
      <path
         style="fill:#5e7cae;fill-opacity:1;stroke:#000000;stroke-width:0.95589817px;stroke-linecap:butt;stroke-linejoin:miter;stroke-opacity:1"
         d="m -20.041041,349.46136 993.262211,24.60079 2.9666,-503.43329 -1025.719208,-1.50889 z"
         id="path3887"
         inkscape:connector-curvature="0"
         sodipodi:nodetypes="ccccc" />
      <path
         style="fill:#58572b;fill-opacity:1;stroke:#000000;stroke-width:0.95589817px;stroke-linecap:butt;stroke-linejoin:miter;stroke-opacity:1"
         d="M -44.772156,361.45842 -50.224022,709.7581 963.37954,722.98549 944.00202,360.28152 z"
         id="path3889"
         inkscape:connector-curvature="0"
         sodipodi:nodetypes="ccccc" />
      <path
         inkscape:connector-curvature="0"
         id="path3891"
         d="m 385.66991,324.91833 -250.85889,8.78097 c 35.57543,-64.75675 144.40455,-114.61979 250.85889,-8.78097 z"
         style="fill:#ffffff;stroke:#000000;stroke-width:0.95589817px;stroke-linecap:butt;stroke-linejoin:miter;stroke-opacity:1"
         sodipodi:nodetypes="ccc" />
      <path
         style="fill:#343539;fill-opacity:1;stroke:#000000;stroke-width:0.95589817px;stroke-linecap:butt;stroke-linejoin:miter;stroke-opacity:1"
         d="m 510.05883,7.141861 45.32093,45.803863 10.12735,263.986466 -47.38562,4.36822 z"
         id="path3893"
         inkscape:connector-curvature="0" />
      <path
         style="fill:#ffffff;stroke:#000000;stroke-width:0.95589817px;stroke-linecap:butt;stroke-linejoin:miter;stroke-opacity:1"
         d="m 626.99908,317.68163 140.4327,-4.7261 c 24.31224,-22.75482 53.76013,-54.90026 52.72828,-80.21471 0.65244,-18.65918 -307.99398,5.79821 -281.60657,29.9155 28.30013,25.89148 56.1712,41.09527 88.44559,55.02531 z"
         id="path3895"
         inkscape:connector-curvature="0"
         sodipodi:nodetypes="ccccc" />
      <path
         style="fill:#1f2025;fill-opacity:1;stroke:#000000;stroke-width:0.95589817px;stroke-linecap:butt;stroke-linejoin:miter;stroke-opacity:1"
         d="M 437.56482,12.098714 443.64124,323.34619 495.46979,321.5799 478.74941,39.44258 z"
         id="path3897"
         inkscape:connector-curvature="0"
         sodipodi:nodetypes="ccccc" />
      <path
         style="fill:#76777b;fill-opacity:1;stroke:#000000;stroke-width:0.95589817px;stroke-linecap:butt;stroke-linejoin:miter;stroke-opacity:1"
         d="M 471.67195,322.33697 518.04311,321.30041 510.06359,7.121384 464.87125,8.027293 z"
         id="path3899"
         inkscape:connector-curvature="0"
         sodipodi:nodetypes="ccccc" />
      <path
         style="fill:#8b8c91;fill-opacity:1;stroke:#000000;stroke-width:0.95589817px;stroke-linecap:butt;stroke-linejoin:miter;stroke-opacity:1"
         d="m 395.70507,12.014319 42.78809,0.08439 4.86666,311.148601 -41.32513,1.78677 z"
         id="path3901"
         inkscape:connector-curvature="0"
         sodipodi:nodetypes="ccccc" />
      <path
         style="fill:#666666;stroke:#000000;stroke-width:0.95589817px;stroke-linecap:butt;stroke-linejoin:miter;stroke-opacity:1"
         d="m -71.326191,339.51244 9.944167,35.92934 1006.373554,-10.88507 0,-65.62133 z"
         id="path3903"
         inkscape:connector-curvature="0"
         sodipodi:nodetypes="ccccc" />
      <path
         style="fill:#ffffff;stroke:#000000;stroke-width:0.95589817px;stroke-linecap:butt;stroke-linejoin:miter;stroke-opacity:1"
         d="m -28.535758,389.59966 318.286168,-64.67728 -36.32177,1.61964 -282.279052,55.46182 z"
         id="path3905"
         inkscape:connector-curvature="0"
         sodipodi:nodetypes="ccccc" />
      <path
         style="fill:#808080;stroke:#000000;stroke-width:0.95589817px;stroke-linecap:butt;stroke-linejoin:miter;stroke-opacity:1"
         d="m 289.7479,324.9223 0.0242,6.10678 -317.845961,63.33906 0.238704,-4.77409 z"
         id="path3907"
         inkscape:connector-curvature="0"
         sodipodi:nodetypes="ccccc" />
      <path
         style="fill:#1e3b5d;fill-opacity:1;stroke:#000000;stroke-width:0.95589817px;stroke-linecap:butt;stroke-linejoin:miter;stroke-opacity:1"
         d="m -25.053827,457.83303 c 46.203713,10.54367 155.606947,5.5014 141.551547,32.46376 -22.321155,44.3754 168.66156,81.97991 373.81065,100.25573 104.28802,11.32264 415.88546,25.95236 481.8894,2.58 23.3265,-38.63918 15.7392,-86.15072 13.8448,-133.19689 L -27.440869,430.85946 c -4.838333,4.12703 -4.267881,26.27316 2.387042,26.97357 z"
         id="path3909"
         inkscape:connector-curvature="0"
         sodipodi:nodetypes="ccccccc" />
    </g>
    <rect
       ry="88.512871"
       rx="73.543198"
       y="-1167.7384"
       x="168.49225"
       height="786.17865"
       width="786.17865"
       id="rect3206"
       style="fill:none;stroke:#e43030;stroke-width:4.5;stroke-miterlimit:4;stroke-opacity:1;stroke-dasharray:none" />
    <path
       sodipodi:nodetypes="cscscccccssccscsccscsccccssscscc"
       style="fill:#000000"
       d="m -2101.7744,-960.38814 c 0,0 21.5288,19.1111 44.7634,42.469 40.0575,40.2704 42.1479,42.824 40.3715,49.3246 -6.4522,23.6126 2.3867,48.5587 22.5513,63.6453 l 12.3608,9.248 0,103.8044 0,103.8044 -13.3921,11.5586 c -16.4185,14.1702 -23.0784,27.8143 -22.9008,46.9146 0.2419,25.9661 17.1395,48.1533 42.2269,55.4442 16.0163,4.6545 28.6218,3.1039 44.6052,-5.4866 36.8364,-19.7987 40.2835,-71.2896 6.5602,-97.9908 l -9.543,-7.5556 0,-100.6861 c 0,-71.248 0.7722,-101.1633 2.6412,-102.3179 1.5337,-0.9477 18.0354,13.6917 39.3644,34.9217 l 36.7233,36.5535 -1.5199,15.6406 c -1.8333,18.8621 1.1585,31.3333 10.6631,44.4498 24.8199,34.2522 78.2617,30.9847 98.1531,-6.0014 12.5954,-23.4194 9.9125,-48.6618 -7.1893,-67.6421 -12.3018,-13.6533 -25.3189,-18.9128 -46.5339,-18.802 l -17.2033,0.09 -41.4546,-41.493 -41.4551,-41.493 -0.1106,-18.4411 c -0.1313,-21.8863 -5.2368,-33.619 -20.2076,-46.4296 -11.8697,-10.1569 -26.806,-14.6241 -43.3605,-12.9686 l -12.501,1.2501 -43.3952,-43.055 c -23.8672,-23.6802 -43.3951,-45.6704 -43.3951,-45.6704 z"
       id="path3108"
       inkscape:connector-curvature="0" />
    <path
       style="fill:#868686"
       d="m -1382.0267,-1024.9525 c -0.7297,0 -1.4876,0.021 -2.2156,0.062 -5.8244,0.3278 -11.5204,2.0733 -16.1964,5.1804 -1.7535,1.1651 -3.3611,2.5109 -4.7746,4.0568 -1.4199,1.5501 -2.6404,3.2835 -3.62,5.2116 -0.1627,0.3202 -0.3191,0.6368 -0.4681,0.9674 -0.4517,0.9993 -0.8055,2.0272 -1.1234,3.1207 -0.7896,2.7161 -1.2959,5.107 -1.4355,7.36476 -0.035,0.5644 -0.042,1.1011 -0.031,1.6539 0.078,4.4342 1.6538,8.5759 5.2115,14.2303 0.4437,0.7052 0.8978,1.4296 1.4043,2.1845 1.0169,1.5162 2.1503,3.1412 3.4327,4.8995 1.1682,1.6015 2.068,3.0559 2.715,4.4001 0.1618,0.3361 0.3076,0.6458 0.4369,0.9674 0.2639,0.6525 0.4615,1.2749 0.593,1.8724 0.065,0.2949 0.1232,0.5601 0.156,0.8426 0.272,2.2735 -0.4983,4.1324 -2.2781,5.8045 -0.5424,0.5095 -1.068,0.9721 -1.654,1.3731 -4.1019,2.8068 -11.0883,3.1417 -46.4356,3.6824 l -38.9461,0.5928 0,39.4454 c 0,31.2075 0.036,37.8189 1.1859,41.6611 0.088,0.2956 0.1787,0.5699 0.2808,0.8426 0.2066,0.555 0.4177,1.0718 0.6866,1.6539 1.1642,2.52 2.4232,4.21 3.9632,5.0555 0.3081,0.1691 0.6023,0.3046 0.9362,0.4058 0.167,0.051 0.3564,0.091 0.5306,0.1248 0.3482,0.067 0.7126,0.095 1.0922,0.094 0.1898,-7e-4 0.3634,-0.013 0.5617,-0.031 0.7934,-0.072 1.6735,-0.2761 2.6214,-0.6241 0.4739,-0.174 0.9799,-0.3806 1.4979,-0.6242 1.036,-0.487 2.1363,-1.1048 3.3703,-1.8724 0.6171,-0.3837 1.2629,-0.7939 1.9349,-1.2483 1.3439,-0.9085 2.8146,-1.9589 4.4001,-3.1518 l 7.7393,-5.8357 9.05,0 c 8.1407,0 9.5572,0.2819 13.8558,2.8087 1.4981,0.8806 2.8636,1.9189 4.1193,3.0582 0.4185,0.3797 0.8257,0.7808 1.217,1.1859 2.3479,2.4306 4.2072,5.2968 5.5548,8.4258 0.2246,0.5215 0.4279,1.0253 0.6242,1.5604 0,0.01 0,0.022 0,0.031 0.1924,0.526 0.3968,1.0542 0.5617,1.5916 0.1712,0.5559 0.3265,1.1187 0.4681,1.685 0.1391,0.5569 0.2641,1.0888 0.3745,1.6541 1.9978,10.1808 -0.6976,21.5721 -8.5195,29.2408 -3.4555,3.3878 -7.3364,5.5252 -11.9522,6.5222 -1.6784,0.3625 -3.4406,0.5532 -5.3363,0.6241 -0.474,0.018 -0.9467,0.031 -1.4355,0.031 -2.2713,0 -3.9852,-0.042 -5.5236,-0.312 -0.6154,-0.1083 -1.2276,-0.2522 -1.81,-0.437 -0.2913,-0.092 -0.5818,-0.197 -0.8738,-0.312 -0.5841,-0.2302 -1.1553,-0.5075 -1.7788,-0.8426 -1.8704,-1.0054 -4.0227,-2.5447 -7.1152,-4.8371 -0.7466,-0.5535 -1.4625,-1.0729 -2.1532,-1.5603 -1.3815,-0.9751 -2.6617,-1.815 -3.8385,-2.5278 -1.1768,-0.7128 -2.2789,-1.2948 -3.2767,-1.7476 -0.9977,-0.4527 -1.9019,-0.7725 -2.7462,-0.9673 -0.4221,-0.097 -0.8285,-0.1539 -1.217,-0.1874 -0.9713,-0.084 -1.825,0.03 -2.6214,0.3434 -1.7519,0.6903 -3.1397,2.3194 -4.4314,4.8994 -0.1174,0.2347 -0.2389,0.4835 -0.3432,0.7178 0,0.01 0,0.023 0,0.031 -0.1,0.2258 -0.1923,0.4446 -0.2809,0.6866 -0.014,0.042 -0.017,0.081 -0.031,0.1249 -1.2513,3.54 -1.3994,9.821 -1.654,42.2538 -0.043,5.4739 -0.078,10.725 -0.094,15.5411 0,1.3526 0,2.3418 0,3.62 -0.052,6.928 -0.096,11.6759 -0.156,20.4091 -0.586,84.7417 -0.5882,84.5969 -5.586,89.5947 -3.2414,3.2414 -5.8832,2.5561 -14.5424,-3.7448 -9.79,-7.1238 -12.5447,-8.3425 -18.7552,-8.3634 -17.522,-0.059 -28.9746,11.4546 -28.9599,29.1471 0.01,8.4797 1.1989,12.8346 5.2427,18.8489 4.0368,6.0037 10.6152,10.0997 18.1624,11.328 8.6355,1.4056 13.3919,-0.064 22.9681,-7.0215 9.7999,-7.12 13.1304,-8.09 16.134,-4.7746 4.5073,4.9754 4.7772,7.2544 5.1491,47.7463 0.314,34.2001 0.5089,38.5847 1.966,39.695 2.0606,1.5703 59.1946,1.7421 72.4933,0.2185 18.5806,-2.1287 20.5814,-7.6785 8.301,-23.2802 -5.401,-6.8618 -7.0718,-12.0966 -6.2101,-19.4418 2.5369,-21.6265 29.7722,-32.2092 48.4329,-18.8177 5.4115,3.8834 8.5967,9.0944 10.1734,16.6331 1.7167,8.2085 0.036,13.8378 -6.647,22.5626 -8.7747,11.456 -9.2562,16.342 -1.9349,19.8163 6.5625,3.114 21.8221,3.6398 86.8797,2.9959 32.3914,-0.3207 51.5953,-0.3536 63.5994,0.093 0.02,9e-4 0.043,-9e-4 0.062,0 0.112,0 0.2013,0.027 0.3121,0.031 1.4776,0.072 2.9015,0.1288 4.2129,0.2184 0.2104,0.015 0.4178,0.047 0.6241,0.062 2.5414,0.1835 4.7926,0.3944 6.7407,0.6553 0.058,0.01 0.1293,0.023 0.1872,0.031 0.98,0.1341 1.9052,0.2809 2.7462,0.4368 0.039,0.01 0.086,0.024 0.1248,0.031 0.8452,0.1595 1.6283,0.3161 2.3406,0.4993 0.4015,0.1039 0.7302,0.2317 1.0922,0.3433 0.1494,0.053 0.3244,0.1016 0.4681,0.156 0.4884,0.1853 0.9365,0.3859 1.3731,0.593 1.6057,0.7619 2.7832,1.6337 3.5264,2.6838 0.051,0.086 0.1106,0.1611 0.156,0.2496 0.025,0.04 0.038,0.084 0.062,0.1249 0.1467,0.3075 0.2593,0.6329 0.3433,0.9673 0.2625,1.0463 0.3618,2.0286 0.2496,3.0584 -0.4258,2.386 -1.9292,5.3279 -4.5874,9.0187 -0.4266,0.5819 -0.847,1.1644 -1.3419,1.81 -2.7862,3.6353 -5.7105,8.1181 -6.491,9.9862 -3.0413,7.2789 -0.9147,20.0009 4.4314,26.4633 3.4492,4.1695 11.3632,8.6858 17.351,9.9238 l 0,0.031 c 0.6356,0.1314 1.2671,0.2311 1.9348,0.3122 4.0066,0.4859 8.5299,0.065 12.826,-0.9986 2.148,-0.5321 4.2379,-1.2252 6.1789,-2.0598 3.8821,-1.669 7.1759,-3.8897 9.1124,-6.4285 0.4684,-0.614 0.9243,-1.2335 1.3419,-1.8724 0.4227,-0.6468 0.7843,-1.2978 1.1547,-1.9661 0.3664,-0.6599 0.7147,-1.3203 1.0298,-1.9972 0.3194,-0.6859 0.6075,-1.3604 0.8738,-2.0596 0.2634,-0.6899 0.5062,-1.361 0.7177,-2.0597 2.3265,-7.6865 1.5022,-15.8014 -2.6838,-21.6575 -8.0785,-11.3014 -10.7885,-15.3035 -10.423,-17.9751 0.031,-0.2429 0.076,-0.4618 0.1561,-0.6865 0.3191,-0.8993 1.0031,-1.6897 1.9659,-2.6526 1.1455,-1.1456 2.3121,-2.0427 4.0258,-2.7462 0.8567,-0.3518 1.8476,-0.6395 3.0581,-0.905 2.4261,-0.5322 5.6934,-0.9026 10.3919,-1.1859 1.1708,-0.071 2.4198,-0.158 3.7761,-0.2185 6.7814,-0.3016 15.999,-0.4627 28.7414,-0.6553 l 37.9474,-0.5929 0,-38.4468 c 0,-13.041 -0.037,-21.7536 -0.156,-27.8364 -0.039,-2.027 -0.093,-3.7443 -0.156,-5.2428 -0.2512,-5.9935 -0.7027,-8.2394 -1.5292,-10.6103 -0.1695,-0.4862 -0.3232,-0.9379 -0.4993,-1.3731 -0.1723,-0.4269 -0.3505,-0.8071 -0.5305,-1.1857 -0.7204,-1.5144 -1.5292,-2.6391 -2.4341,-3.4016 -0.4525,-0.3813 -0.9191,-0.6736 -1.4355,-0.8738 -1.5494,-0.6008 -3.4028,-0.4149 -5.7421,0.5306 -0.7797,0.315 -1.6364,0.7081 -2.5277,1.1857 -0.5463,0.2928 -1.1632,0.6733 -1.8412,1.0923 -1.3562,0.838 -2.884,1.8805 -4.2442,2.871 -0.68,0.4954 -1.3221,0.959 -1.8724,1.4043 -0.8124,0.6577 -1.5838,1.2731 -2.3093,1.8101 -1.8138,1.3422 -3.4027,2.3188 -4.993,3.027 -0.6363,0.2833 -1.2833,0.5167 -1.9349,0.7178 -0.6516,0.201 -1.301,0.3694 -1.9972,0.4993 -0.3481,0.065 -0.6962,0.1068 -1.061,0.156 -0.7296,0.098 -1.4913,0.1747 -2.3093,0.2185 -0.8181,0.044 -1.7168,0.062 -2.6526,0.062 -0.9684,0 -1.9114,-0.044 -2.8398,-0.1248 -0.9284,-0.081 -1.8289,-0.1836 -2.7151,-0.3432 -1.7722,-0.3195 -3.4655,-0.8145 -5.0554,-1.4356 -0.795,-0.3105 -1.5633,-0.6472 -2.3094,-1.0297 -1.492,-0.7653 -2.8674,-1.6749 -4.1504,-2.7151 -0.3208,-0.26 -0.6604,-0.5348 -0.9675,-0.8114 -1.8483,-1.6648 -3.4292,-3.6085 -4.7434,-5.8356 -0.6557,-1.1088 -1.2357,-2.258 -1.7476,-3.4951 -0.6824,-1.6496 -1.2116,-3.4118 -1.6227,-5.274 -0.2055,-0.9311 -0.3962,-1.8901 -0.5305,-2.871 -0.1343,-0.981 -0.2199,-1.9986 -0.2808,-3.0271 -0.2339,-3.9454 -0.1221,-7.1478 0.4368,-10.0485 0.08,-0.4145 0.1513,-0.8142 0.2496,-1.2171 0.2953,-1.2088 0.6814,-2.3767 1.1547,-3.5264 0.1578,-0.3832 0.3206,-0.7731 0.4993,-1.1547 0.3609,-0.7705 0.7669,-1.5303 1.2171,-2.3093 0.4451,-0.7714 0.9293,-1.5411 1.4667,-2.3405 0.4975,-0.7399 1.0464,-1.4378 1.6228,-2.1221 0.2831,-0.336 0.5731,-0.6769 0.8738,-0.9986 0,-0.01 -0.01,-0.026 0,-0.031 0.3063,-0.3271 0.6439,-0.6246 0.9674,-0.9362 1.2939,-1.246 2.718,-2.3692 4.2442,-3.339 0.3814,-0.2426 0.7611,-0.4631 1.1546,-0.6867 0.3934,-0.2235 0.7815,-0.4513 1.1858,-0.6553 1.2129,-0.6119 2.4841,-1.1364 3.7761,-1.5603 0.8612,-0.2826 1.7353,-0.5254 2.6213,-0.7177 0.443,-0.096 0.8943,-0.1771 1.3419,-0.2497 1.0156,-0.1647 1.9863,-0.2707 2.9334,-0.3433 0.4762,-0.036 0.9419,-0.082 1.4043,-0.094 0.011,-2e-4 0.021,3e-4 0.031,0 0.4516,-0.011 0.9016,-0.013 1.3419,0 0.01,3e-4 0.021,-3e-4 0.031,0 0.4505,0.014 0.9014,0.055 1.3419,0.094 0.4301,0.038 0.857,0.093 1.2795,0.156 0.01,0 0.021,0 0.031,0 0.4222,0.063 0.8317,0.1303 1.2482,0.2185 0.02,0 0.043,0 0.062,0 0.4068,0.087 0.8142,0.2003 1.2172,0.3121 0.2436,0.068 0.4748,0.1415 0.7178,0.2184 0.1856,0.058 0.3763,0.1235 0.5616,0.1873 0.01,0 0.022,0 0.031,0 0.1589,0.055 0.3094,0.1283 0.4681,0.1871 0.2519,0.093 0.4971,0.1775 0.749,0.2809 0.1144,0.047 0.2288,0.1068 0.3433,0.1561 0.3044,0.1305 0.5997,0.2602 0.9049,0.4057 0.03,0.014 0.064,0.017 0.094,0.031 0.1239,0.06 0.2503,0.1251 0.3745,0.1874 0.2692,0.1346 0.5405,0.2591 0.8114,0.4056 0.033,0.018 0.06,0.044 0.093,0.062 0.3931,0.2145 0.7882,0.4469 1.186,0.6866 0.033,0.02 0.061,0.042 0.094,0.062 0.3993,0.2424 0.8113,0.4807 1.217,0.7489 0.1353,0.089 0.2695,0.1888 0.4057,0.2809 0.3054,0.2072 0.5951,0.4334 0.9051,0.6553 0.05,0.036 0.1053,0.057 0.1559,0.094 0.4001,0.2887 0.808,0.5914 1.2172,0.905 0.054,0.041 0.1013,0.083 0.1559,0.1248 1.0173,0.7797 1.9837,1.494 2.9022,2.1532 3.8248,2.7733 6.7058,4.518 8.9564,5.2427 0.3528,0.1137 0.7045,0.1829 1.0298,0.2497 0.6506,0.1338 1.2515,0.1723 1.8101,0.1248 0.4412,-0.037 0.8509,-0.1347 1.2482,-0.2808 1.1401,-0.3363 2.0893,-1.0895 2.9022,-2.2469 1.2701,-1.457 2.14,-3.0476 2.7462,-7.3648 0.013,-0.068 0.018,-0.1496 0.031,-0.2185 0.017,-0.1262 0.046,-0.2123 0.062,-0.3432 0.3087,-1.6789 0.5653,-3.6085 0.7801,-5.9604 0.079,-0.8646 0.1507,-1.7721 0.2185,-2.7462 0.4069,-5.8501 0.6355,-13.7454 0.7177,-24.8095 0.027,-3.6831 0.029,-7.7184 0.031,-12.1394 l 0.031,-33.7033 0,-1.0298 -0.094,0 c 0,-0.3389 0,-0.5635 0,-0.9051 l 0.5929,-79.39 2.2469,-4.2129 c 3.8911,-7.2828 7.9416,-6.8672 19.7851,2.0597 7.7276,5.8245 10.0022,6.647 18.256,6.647 8.0031,0 15.7452,-3.3028 19.629,-8.3946 15.93036,-20.8858 4.08716,-50.4077 -20.2531,-50.4926 -7.5975,-0.027 -10.6651,1.1941 -19.6291,7.8641 -3.7997,2.8272 -8.0444,5.4268 -9.4245,5.7733 -2.525,0.6338 -4.7692,-0.1435 -6.5846,-2.1845 -0.1815,-0.2041 -0.3582,-0.4262 -0.5305,-0.6553 -0.1723,-0.2292 -0.3367,-0.4639 -0.4993,-0.7178 -0.1626,-0.2539 -0.3467,-0.533 -0.4993,-0.8113 -0.4577,-0.8353 -0.8571,-1.7899 -1.2171,-2.8399 -1.4828,-4.3253 -1.7096,-9.7639 -1.7476,-42.0667 -0.024,-20.4142 -0.322,-37.8276 -0.6553,-38.6964 -0.5378,-1.4014 -4.8008,-1.5916 -37.885,-1.5916 -10.0204,0 -17.9276,0.04 -24.1852,0.1561 -1.5645,0.029 -3.0004,0.054 -4.369,0.094 -15.0555,0.4391 -18.77,1.6063 -21.5951,4.4314 -3.056,3.056 -2.5275,5.7632 2.5589,13.138 9.8302,14.2527 9.6996,13.9525 9.6117,21.564 -0.073,6.345 -1.0447,10.4018 -3.8697,14.5735 -0.2353,0.3476 -0.4874,0.6793 -0.7489,1.0299 -0.7845,1.0514 -1.7073,2.1495 -2.7462,3.2766 -3.9451,4.2799 -8.3601,6.9044 -13.887,8.1449 -0.5024,0.1129 -1.0394,0.2223 -1.5603,0.3122 -1.5627,0.2695 -3.1858,0.4296 -4.9307,0.4993 -0.5816,0.023 -1.1751,0.029 -1.7787,0.031 -6.6219,0.019 -8.5246,-0.3895 -14.1992,-3.1831 -10.9346,-5.3831 -16.2586,-14.3792 -15.4161,-26.0264 0.4261,-5.8911 2.0481,-9.2785 9.3308,-19.4419 7.507,-10.4764 5.8476,-14.7864 -7.0215,-18.2559 -1.6478,-0.4442 -37.8227,-0.8014 -80.3887,-0.8114 l -65.2846,-0.031 c -4.0355,-0.094 -7.1313,-0.2021 -9.2684,-0.3745 -0.5977,-0.048 -1.1285,-0.099 -1.6227,-0.1559 -2.9655,-0.3414 -4.2417,-0.8601 -5.9605,-1.654 -3.9778,-1.8372 -6.0534,-3.8227 -6.2102,-6.6158 -0.01,-0.1862 -0.038,-0.3681 -0.031,-0.5618 0.1063,-3.0981 2.4166,-7.1816 6.9279,-13.0444 2.1626,-2.8104 3.6059,-4.8539 4.5874,-6.7719 0.1636,-0.3184 0.3301,-0.6231 0.4681,-0.9362 1.2426,-2.8179 1.4735,-5.5285 1.4667,-10.1422 -0.01,-4.29396 -0.4681,-7.21336 -1.7475,-10.36056 -0.1817,-0.4482 -0.3782,-0.8806 -0.593,-1.3419 -0.9713,-2.0859 -2.1755,-3.959 -3.5887,-5.6172 -1.407,-1.6539 -3.0261,-3.0718 -4.7747,-4.3066 -0.5828,-0.4115 -1.1652,-0.8204 -1.7788,-1.1858 -1.2272,-0.7308 -2.5098,-1.3563 -3.8384,-1.9036 -3.3214,-1.3684 -6.9086,-2.1634 -10.5479,-2.4029 -0.7278,-0.048 -1.4547,-0.09 -2.1845,-0.094 z"
       id="path3168"
       inkscape:connector-curvature="0" />
    <g
       style="display:inline"
       id="g3073"
       clip-path="url(#clipPath3978)"
       transform="matrix(0.9350004,0,0,0.9350004,203.42551,59.611725)">
      <rect
         style="opacity:0.52272728;fill:#ffffff;fill-opacity:1;stroke:#ff0000;stroke-width:2.13903594;stroke-miterlimit:4;stroke-opacity:1;stroke-dasharray:none"
         id="rect3911"
         width="742.77722"
         height="793.76569"
         x="-131.79572"
         y="-88.584152"
         rx="48.512283"
         ry="50.802662" />
      <path
         sodipodi:nodetypes="ccccc"
         inkscape:connector-curvature="0"
         id="path3015"
         d="M -430.74884,416.63339 737.7078,481.9237 699.87714,-253.23988 -652.69079,-236.14574 z"
         style="fill:#5e7cae;fill-opacity:1;stroke:#000000;stroke-width:1.06951797px;stroke-linecap:butt;stroke-linejoin:miter;stroke-opacity:1" />
      <path
         sodipodi:nodetypes="ccccc"
         inkscape:connector-curvature="0"
         id="path3013"
         d="m -446.73761,367.64529 95.64267,752.78751 1201.20377,24.6505 C 763.55375,924.75307 890.68963,357.17753 663.80546,366.49577 z"
         style="fill:#008000;fill-opacity:1;stroke:#000000;stroke-width:1.06951797px;stroke-linecap:butt;stroke-linejoin:miter;stroke-opacity:1" />
      <path
         sodipodi:nodetypes="ccc"
         style="fill:#ffffff;stroke:#000000;stroke-width:1.06951797px;stroke-linecap:butt;stroke-linejoin:miter;stroke-opacity:1"
         d="m 153.49705,331.95555 -229.281819,8.57662 C -43.269281,277.2824 56.199147,228.57974 153.49705,331.95555 z"
         id="path2995"
         inkscape:connector-curvature="0" />
      <path
         inkscape:connector-curvature="0"
         id="path3818"
         d="m 267.18693,21.5742 41.42275,44.73794 9.25627,257.84311 -43.30985,4.26657 z"
         style="fill:#343539;fill-opacity:1;stroke:#000000;stroke-width:1.06951797px;stroke-linecap:butt;stroke-linejoin:miter;stroke-opacity:1" />
      <path
         sodipodi:nodetypes="ccccc"
         inkscape:connector-curvature="0"
         id="path3001"
         d="m 374.06882,324.88725 128.35369,-4.61612 c 22.22109,-22.22528 49.13608,-53.62265 48.19298,-78.34799 0.59632,-18.22495 -281.50256,5.66328 -257.3848,29.21932 25.86596,25.28894 51.33975,40.13892 80.83813,53.74479 z"
         style="fill:#ffffff;stroke:#000000;stroke-width:1.06951797px;stroke-linecap:butt;stroke-linejoin:miter;stroke-opacity:1" />
      <path
         sodipodi:nodetypes="ccccc"
         inkscape:connector-curvature="0"
         id="path3007"
         d="M 200.92833,26.415701 206.48211,330.41999 253.85273,328.6948 238.57052,53.123234 z"
         style="fill:#1f2025;fill-opacity:1;stroke:#000000;stroke-width:1.06951797px;stroke-linecap:butt;stroke-linejoin:miter;stroke-opacity:1" />
      <path
         sodipodi:nodetypes="ccccc"
         inkscape:connector-curvature="0"
         id="path3005"
         d="m 232.10181,329.43425 42.38265,-1.01243 -7.29318,-306.86762 -41.30522,0.884827 z"
         style="fill:#76777b;fill-opacity:1;stroke:#000000;stroke-width:1.06951797px;stroke-linecap:butt;stroke-linejoin:miter;stroke-opacity:1" />
      <path
         sodipodi:nodetypes="ccccc"
         inkscape:connector-curvature="0"
         id="path3009"
         d="m 162.66906,26.333269 39.10776,0.08242 4.44807,303.907721 -37.77064,1.74519 z"
         style="fill:#8b8c91;fill-opacity:1;stroke:#000000;stroke-width:1.06951797px;stroke-linecap:butt;stroke-linejoin:miter;stroke-opacity:1" />
      <path
         sodipodi:nodetypes="ccccc"
         inkscape:connector-curvature="0"
         id="path2991"
         d="m -264.19154,346.21003 9.08884,35.09321 919.81256,-10.63176 0,-64.09423 z"
         style="fill:#666666;stroke:#000000;stroke-width:1.06951797px;stroke-linecap:butt;stroke-linejoin:miter;stroke-opacity:1" />
      <path
         sodipodi:nodetypes="ccccc"
         inkscape:connector-curvature="0"
         id="path2987"
         d="m -225.08163,395.13164 290.909485,-63.17215 -33.19764,1.58196 -257.999435,54.17114 z"
         style="fill:#ffffff;stroke:#000000;stroke-width:1.06951797px;stroke-linecap:butt;stroke-linejoin:miter;stroke-opacity:1" />
      <path
         sodipodi:nodetypes="ccccc"
         inkscape:connector-curvature="0"
         id="path2989"
         d="m 65.825557,331.95942 0.0221,5.96467 -290.507137,61.86506 0.21817,-4.66299 z"
         style="fill:#808080;stroke:#000000;stroke-width:1.06951797px;stroke-linecap:butt;stroke-linejoin:miter;stroke-opacity:1" />
      <path
         sodipodi:nodetypes="ccccccc"
         inkscape:connector-curvature="0"
         id="path3011"
         d="m -221.89919,461.77712 c 42.2296,10.29831 142.222759,5.37337 129.3763,31.70828 -20.40125,43.34272 154.15451,80.07212 341.65815,97.92263 95.31792,11.05914 380.11399,25.34841 440.44075,2.51996 21.32017,-37.73998 14.38543,-84.14586 12.65397,-130.0972 l -926.3109,-28.39952 c -4.42218,4.03099 -3.90079,25.66174 2.18173,26.34585 z"
         style="fill:#000080;fill-opacity:1;stroke:#000000;stroke-width:1.06951797px;stroke-linecap:butt;stroke-linejoin:miter;stroke-opacity:1" />
    </g>
    <path
       style="fill:#ffff00;fill-opacity:1"
       d="m 267.09432,130.1153 c -2.56013,-1.20075 -68.09816,-66.860818 -69.05878,-69.187439 -0.81459,-1.972778 -0.87526,-3.949355 -0.1982,-6.445922 0.41717,-1.537909 3.84245,-5.164569 23.12496,-24.484561 12.44934,-12.473585 22.85033,-22.6792467 23.11342,-22.6792467 0.26295,0 4.08758,3.6285567 8.49903,8.0634397 7.60558,7.645979 8.00245,8.130832 7.6652,9.365065 -1.22506,4.48324 0.45313,9.219639 4.28172,12.084083 l 2.34687,1.755898 0,19.708945 0,19.708932 -2.54269,2.194585 c -3.1173,2.690456 -4.38179,5.280984 -4.34809,8.907515 0.0459,4.930074 3.2542,9.14268 8.01746,10.526981 3.04098,0.883755 5.43433,0.589345 8.469,-1.041731 6.994,-3.7591 7.64848,-13.535479 1.24559,-18.605147 l -1.81191,-1.434554 0,-19.11689 c 0,-13.527576 0.14663,-19.207474 0.50151,-19.42669 0.29119,-0.179937 3.42428,2.59958 7.47396,6.630441 l 6.97251,6.940267 -0.28856,2.969624 c -0.3481,3.58127 0.21994,5.949135 2.02455,8.439519 4.71243,6.503325 14.85926,5.882928 18.63594,-1.139473 2.39146,-4.446538 1.88206,-9.239216 -1.36503,-12.842944 -2.33568,-2.592285 -4.8072,-3.590894 -8.8352,-3.569866 l -3.26633,0.01712 -7.87082,-7.878111 -7.8709,-7.878123 -0.0211,-3.501339 c -0.025,-4.155455 -0.99433,-6.383121 -3.83677,-8.815412 -2.25367,-1.92845 -5.08956,-2.776625 -8.23267,-2.462293 l -2.37353,0.237392 -8.23926,-8.174702 c -4.53163,-4.4960786 -8.23931,-8.39814888 -8.23931,-8.6712664 0,-0.2731222 3.30314,-3.7606649 7.34028,-7.7501321 5.81657,-5.7478675 7.71425,-7.3573555 9.1422,-7.7536375 2.59138,-0.719205 4.70314,-0.606719 6.76808,0.360505 1.23508,0.57849 12.38639,11.4533631 35.27836,34.403872 27.19973,27.26938 33.57659,33.886846 34.02837,35.312649 0.70674,2.230276 0.30459,5.764777 -0.86944,7.641567 -0.49399,0.789634 -15.78972,16.295197 -33.99048,34.456829 -28.46281,28.401481 -33.34506,33.089301 -34.8983,33.508601 -2.6147,0.70582 -4.71681,0.58962 -6.77199,-0.37428 z"
       id="path3883"
       inkscape:connector-curvature="0" />
    <path
       inkscape:connector-curvature="0"
       style="fill:#1a1a1a"
       d="m 250.5059,-131.95235 c -9.85537,0.21098 -19.74651,3.23416 -27.70994,9.52894 -8.72818,6.89918 -12.99214,15.47499 -13.88419,27.943773 -0.85352,11.929348 0.97202,17.498787 9.35356,28.44068 12.65013,16.514746 13.178,20.549967 3.24452,25.137703 -6.38877,2.950676 -8.72281,3.068998 -62.52273,3.741426 l -55.85832,0.701517 0,57.29058 c 0,55.87922 0.0725,57.415262 3.03991,63.838074 5.1859,11.224932 13.76443,10.93773 29.46373,-1.023046 12.22997,-9.317927 14.94886,-10.445125 25.19616,-10.40584 19.35,0.07464 34.18672,14.577623 36.12814,35.368163 2.12429,22.7489 -12.32224,41.59184 -33.58514,43.78637 -9.64193,0.99522 -15.37436,-0.99667 -25.48846,-8.85665 -16.01957,-12.4495 -23.81221,-14.16242 -29.75603,-6.60596 -5.36492,6.82025 -5.69982,14.04527 -5.69982,120.45637 0,68.64103 -0.50163,105.81532 -1.51996,111.33664 -1.621812,8.7931 -4.785234,15.42828 -7.921297,16.63181 -2.579432,0.9897 -10.544366,-3.32164 -20.285542,-10.93198 -10.298835,-8.04594 -15.759633,-9.79524 -27.651473,-8.94435 -22.316669,1.59666 -36.0325012,16.14692 -37.3265668,39.6065 -1.1447827,20.74873 6.3609848,35.87489 21.3962778,43.231 6.352286,3.10791 9.721767,3.82959 18.677898,3.88758 11.993233,0.0773 13.243664,-0.46819 32.123646,-13.82574 11.160673,-7.89609 13.728647,-7.70645 18.32714,1.49073 l 3.478357,6.98594 0.70152,55.88754 0.70151,55.85832 55.18603,-0.0876 c 50.80314,-0.0886 55.77152,-0.32233 62.81503,-2.80607 14.29281,-5.04017 14.70563,-13.32785 1.54918,-30.89599 -12.50955,-16.70491 -13.80941,-24.77259 -6.54749,-40.24956 3.95272,-8.42419 7.50296,-11.8418 17.59639,-16.89487 21.70691,-10.86726 50.08109,0.3183 56.61829,22.33163 4.13222,13.91455 2.47355,19.99815 -9.70432,35.98199 -16.46798,21.61497 -11.27567,29.88398 20.08093,32.03596 8.81415,0.60488 58.89799,1.1271 111.30742,1.16919 87.24528,0.0706 95.89975,0.28524 102.5969,2.543 12.16337,4.09986 12.53799,8.52975 1.87071,22.18549 -10.89671,13.94925 -12.17871,17.42747 -11.51657,31.27598 0.47469,9.92768 1.23701,13.20218 4.32602,18.47329 4.83467,8.24956 12.27875,14.0686 22.71162,17.77177 6.55498,2.32735 10.59647,2.83707 18.94097,2.36762 24.94119,-1.40304 40.55004,-16.93061 40.80492,-40.57108 0.12179,-11.29163 -1.74261,-15.70483 -12.24732,-29.46373 -9.89027,-12.95394 -10.09399,-17.29834 -1.11074,-21.36705 4.58531,-2.07686 12.48416,-2.48936 61.82122,-3.09837 l 56.55983,-0.70151 0.37999,-53.75377 c 0.41212,-59.78143 -0.2134,-66.41909 -6.86903,-73.07472 -3.41545,-3.41536 -4.82321,-3.95655 -8.56435,-3.21528 -4.40085,0.87147 -8.58569,3.29956 -23.58852,13.73804 -9.43541,6.5649 -17.24797,7.87112 -28.23607,4.67679 -9.68253,-2.81477 -17.82055,-9.78542 -22.88701,-19.58403 -3.02026,-5.84121 -3.67969,-9.01085 -3.74142,-18.23945 -0.0646,-9.50687 0.49812,-12.36246 3.82911,-19.14558 6.59417,-13.42816 18.30311,-20.67956 33.40977,-20.66553 9.38966,0.006 13.27775,1.69856 24.14388,10.49353 12.42397,10.05593 22.25634,11.96906 26.94996,5.23215 1.47206,-2.11269 3.20518,-5.41594 3.85834,-7.3367 0.65335,-1.92066 1.53441,-53.79099 1.95841,-115.25344 0.761,-110.37103 0.79337,-111.83056 3.74142,-118.20567 1.64155,-3.55033 3.71519,-6.88432 4.58909,-7.42439 3.11605,-1.92581 9.51019,0.82531 19.43788,8.38898 12.52994,9.54634 15.2696,10.58449 27.59301,10.52276 16.6963,-0.0836 28.54675,-7.4728 35.63124,-22.24395 4.75656,-9.91758 5.32461,-27.63337 1.22765,-38.671139 -4.52245,-12.184233 -13.40384,-20.434311 -25.48846,-23.705439 -16.43346,-4.448462 -22.39192,-2.73082 -44.04944,12.598081 -9.88569,6.996466 -11.68644,7.400774 -15.5503,3.536817 -5.60091,-5.600821 -6.14604,-11.187938 -6.72287,-69.011765 l -0.55537,-55.624522 -56.8229,0.467678 c -50.69791,0.43017 -57.40774,0.745245 -62.34735,2.952219 -7.88244,3.521897 -10.53679,6.394002 -10.52276,11.341196 0.006,4.832425 3.09762,10.432077 11.98425,21.77626607 3.31023,4.22547253 6.7942,10.60268573 7.74592,14.17649593 4.53994,17.052295 -8.40507,38.009844 -26.56997,43.055624 -8.17417,2.270577 -20.33726,1.683641 -28.58683,-1.403035 -13.85683,-5.184493 -24.71688,-20.848626 -24.61156,-35.485083 0.0403,-5.620744 4.32046,-14.8464447 10.25969,-22.156255 14.30047,-17.600973 14.33541,-24.903443 0.14615,-31.305209 -5.12519,-2.312389 -13.84968,-2.568583 -117.29954,-3.215288 -120.34165,-0.752027 -117.39471,-0.569866 -123.93472,-7.9213 -4.40287,-7.178014 -0.64248,-10.04614 3.44912,-16.456426 2.90026,-3.841509 9.54265,-17.476199 10.78583,-19.934784 2.90419,-5.744959 4.90581,-14.41083 2.01686,-24.231572 -4.94806,-16.82092 -23.65623,-26.65123 -42.47102,-26.24844 z m 2.2507,1.9584 c 15.49511,0.0495 32.02397,8.14662 37.09273,22.50701 7.65184,30.535852 -30.20278,53.383085 -13.35806,66.030318 7.27398,5.721669 11.81402,6.173025 67.8718,6.752104 l 54.04606,0.555368 0.40922,56.121384 c 0.41997,54.220553 0.54012,56.33834 3.47835,62.698109 2.22671,4.819517 4.08686,6.835678 6.89826,7.541311 3.4914,0.876242 5.21961,0.506075 13.70881,-3.010678 3.71087,-0.983818 1.47901,-0.951417 4.2968,-2.075322 0,-2.351112 14.761,-12.445011 20.43169,-13.971887 7.08411,-1.907566 16.8887,-0.485683 25.1377,3.653736 20.97986,10.528091 27.11231,39.857597 13.0073,62.201197 -1.11772,1.7705 -1.87153,3.3317 -2.16301,4.32603 -8.30726,9.97841 -20.08652,15.1002 -34.16974,14.6734 -6.9573,-0.79322 -12.41784,-3.7884 -21.98087,-10.96121 -5.01322,-3.76015 -9.75359,-6.95447 -11.72119,-7.95053 l 0.0876,-0.0292 c -3.10359,-1.60758 -7.6937,-2.53722 -9.96739,-1.60764 -0.0624,-7.3e-4 -0.10725,0 -0.17538,0 -0.68477,0 -2.404,2.66833 -3.82911,5.93366 -2.33746,5.35529 -2.63902,11.41589 -3.27375,61.82122 -0.58516,46.4685 -1.54918,48.78468 -1.54918,48.78468 0,0 0.35893,1.86015 -0.78921,3.36144 0.10532,2.83497 -96.31267,2.35157 -107.36138,-0.52614 -9.13319,-2.37889 -13.24114,-5.29342 -13.24114,-9.32434 0,-3.55725 3.61936,-10.36492 9.11973,-17.15794 8.21841,-10.14946 10.4208,-15.77324 10.40584,-26.51151 -0.0226,-16.19944 -7.81963,-28.90471 -22.06857,-35.92353 -5.4622,-2.69046 -8.75975,-3.21529 -19.90555,-3.21529 -12.11651,0 -14.14399,0.38195 -21.5132,4.17988 -3.19146,1.64489 -6.46252,3.85712 -8.53512,5.69982 -18.58784,10.74436 -20.41008,26.83785 -18.53175,37.23888 0.003,0.0481 -0.004,0.0981 0,0.14615 0.27479,3.98842 0.94508,7.60086 2.01686,9.73355 1.2357,2.45877 5.0477,8.03729 8.44744,12.4227 3.39992,4.3857 7.1059,10.19866 8.24282,12.91961 0.37043,0.8866 0.68841,1.61328 0.99382,2.25071 0.005,0.0202 0.0248,0.0383 0.0292,0.0585 0.49968,2.25663 0.31164,4.40511 -1.57841,6.28442 -0.005,0.005 -0.0243,-0.005 -0.0292,0 -1.33705,0.26218 -3.05611,0.67608 -5.17369,1.22766 -6.60914,1.72143 -18.01085,2.13378 -59.62897,2.13378 l -51.50307,0 0.43845,-54.83527 c 0.42306,-53.05482 0.53512,-55.0337 3.50759,-61.47045 1.68944,-3.65837 3.99823,-7.02486 5.11523,-7.45362 2.71571,-1.04209 10.96729,3.36129 20.95783,11.16581 9.98109,7.79713 29.52219,8.73974 29.52219,8.73974 14.42527,0.82261 22.79848,-9.63814 20.49015,-7.51208 15.3897,-16.55011 19.00106,-36.55785 10.14277,-56.296766 C 189.98142,76.573337 177.51859,71.377591 160.50707,69.032353 147.86005,68.190701 141.30038,72.61489 132.5633,80.724308 114.65546,92.279729 114.46948,91.05069 111.16702,84.144205 107.46069,76.393094 106.60716,64.332047 106.60716,17.90928 l 0,-47.937016 -1.3738,-2.922988 c 0,0 17.70077,-1.403035 50.33386,-1.403035 66.48383,0 76.75769,-1.914394 76.75769,-14.205725 0,-5.217886 -2.83554,-10.696596 -11.28274,-21.717807 -3.70354,-4.831864 -7.16862,-11.031406 -7.68746,-13.796507 -1.51032,-8.051173 0.32195,-19.722012 4.09218,-26.131522 4.52423,-7.69125 8.38024,-11.14182 17.65486,-15.78414 5.53037,-2.76813 11.59154,-4.02385 17.65485,-4.00449 z m 443.3297,95.523272 0,53.607613 c 0,56.174512 0.67159,63.203529 6.43058,69.567132 5.36193,5.924735 15.85705,2.412846 31.01291,-10.34738 6.79405,-5.720265 12.62549,-7.268701 23.29622,-6.167506 16.80807,1.734899 28.48553,12.958474 32.85439,31.539049 4.2237,17.96483 -5.50663,38.9799 -21.04552,45.45247 -13.24446,5.51692 -26.42171,4.07068 -36.50813,-4.03372 -11.34933,-9.11888 -19.61377,-13.43953 -24.14388,-12.59808 -10.82778,2.0112 -11.7384,7.59285 -11.83811,71.26246 1.72962,21.92756 -0.13019,51.2574 -0.75998,57.4075 -20.45915,1.12181 -38.24852,-0.14683 -54.92295,-0.14615 -38.85274,0 -53.52488,0.38429 -58.43055,1.60765 -4.07853,-0.21982 -18.14753,5.07882 -14.3811,12.33501 -0.0189,0.11211 -0.0238,0.21472 0,0.32153 1.47618,7.47247 2.87785,10.02117 11.07812,20.19785 8.49276,10.54025 10.63912,17.64475 8.47667,28.06069 -0.87699,4.22463 -2.8244,10.09138 -4.32602,13.03653 -1.43967,2.824 -2.59453,5.41437 -2.68915,5.99213 -3.70779,5.92223 -5.73529,8.72154 -11.28274,12.07194 -0.66108,0.26731 -1.31004,0.515 -2.19224,0.90613 -9.17725,4.06833 -24.28209,4.96356 -34.16974,2.04609 -16.76289,-4.94598 -28.45917,-19.24679 -29.87294,-36.50813 -0.17103,-3.6977 -0.37915,-7.53037 0.75997,-10.72737 0,0 0.24037,-1.60762 0.5846,-3.3322 3.85491,-8.03008 15.52462,-18.33766 18.70713,-23.99774 0.007,-0.0116 0.0228,-0.0177 0.0292,-0.0292 0.51703,-0.63113 1.30287,-1.90611 2.33839,-3.82912 2.41958,-4.4927 2.47014,-5.27312 0.55537,-8.73974 -1.15638,-2.09323 -4.59597,-5.06953 -7.65823,-6.60595 -5.23865,-2.62863 -8.85318,-2.82183 -61.17815,-3.24452 l -55.62443,-0.43849 0.4969,-54.74758 c 0.42297,-47.61881 0.78047,-55.50896 2.86453,-60.8274 0.59151,-1.50945 0.9938,-2.56735 1.34458,-3.50758 1.25428,-1.41528 1.79623,-1.4459 4.64755,-0.8769 0.82349,0.43192 1.84002,0.89062 3.03991,1.31534 2.88118,1.01992 7.89876,3.98537 11.13659,6.60596 3.23783,2.62077 8.57469,6.30178 11.86733,8.18437 4.94429,2.82674 7.80382,3.42878 16.45643,3.36143 1.44052,-0.0112 2.90263,-0.0474 4.29679,-0.11692 0.019,-3.8e-4 0.0395,4.1e-4 0.0585,0 1.99032,-0.0427 3.82657,-0.21961 5.55368,-0.46767 0.30229,-0.0434 0.61151,-0.0677 0.90613,-0.11692 0.64992,-0.0965 1.222,-0.21474 1.6661,-0.32153 0.0361,-0.008 0.0531,-0.0205 0.0876,-0.0292 11.49256,-2.48126 16.74122,-9.44812 19.8471,-15.43339 2.72592,-2.96583 7.1354,-10.74931 9.11972,-16.57334 1.45766,-4.2945 1.92922,-9.64755 1.49072,-17.59639 -0.97436,-17.672534 -7.60281,-28.487733 -22.06856,-36.040455 -5.09358,-2.659312 -8.39496,-3.269772 -17.45024,-3.244518 -12.20107,0.03461 -13.06147,0.404448 -27.38841,11.458116 -8.7713,6.767304 -15.67171,9.367828 -19.4671,7.336702 -1.36132,-0.728643 -3.57302,-4.345385 -4.93985,-8.008989 -2.17499,-5.830264 -2.57359,-13.148679 -3.06914,-58.693614 -0.49574,-45.565978 -1.28612,-50.012338 -1.28612,-50.012338 l 0.0585,-2.192242 c 0,0 -0.60424,-1.646367 0.40922,-2.659919 0.9781,-0.977448 19.58361,-1.327739 56.50137,-1.052276 51.83037,0.386863 55.36454,0.555555 60.5351,3.186057 10.57336,5.379516 10.25805,9.179264 -1.98763,24.4069566 -8.67945,10.7927968 -10.44148,15.3596277 -10.34738,26.6868874 0.10055,12.036914 3.22833,19.482725 11.66272,27.885313 12.3251,12.278891 28.72948,15.68298 47.46934,9.850472 17.18905,-5.349771 25.34648,-16.423362 26.36536,-35.835842 C 591.74464,9.1382627 590.81719,6.6410949 579.9852,-7.4914855 569.62379,-21.010189 569.41469,-25.284303 578.9037,-30.875396 c 4.49579,-2.648835 7.66449,-2.798539 60.97354,-3.186057 l 56.20908,-0.409219 z M 251.8797,167.53707 c 22.19947,0.0418 38.30565,13.75709 40.16187,34.2282 0.95069,10.48469 -1.09315,16.11694 -10.23046,28.17761 -11.9461,15.76852 -12.65495,22.80773 -2.8353,28.0607 5.61214,3.00221 7.08794,3.07063 59.51205,3.41989 29.57887,0.19727 55.21128,0.68791 56.93982,1.08151 l 3.1276,0.73075 0,49.31082 c 0,51.4416 -0.9564,63.09259 -5.72906,69.74251 -0.23186,0.51644 -0.40159,0.93566 -0.5846,1.3738 -6.51564,4.07574 -13.0995,1.4683 -19.35018,-3.15683 -18.85193,-13.49363 -18.03774,-13.09896 -27.09611,-13.12422 -0.71461,-0.002 -1.4583,0.0351 -2.19224,0.0585 -7.29173,-1.22161 -19.88403,0.28885 -27.85608,9.70433 -0.0942,0.1113 -0.19938,0.208 -0.2923,0.32153 -2.86851,2.87242 -4.95719,5.92026 -7.3367,10.43507 -3.45325,6.55217 -3.84479,8.66425 -3.79989,21.25012 0.058,16.20599 2.65931,23.59746 11.10736,31.80212 8.44337,8.1998 13.32826,10.96121 27.70993,10.96121 11.60403,0 13.51684,-1.19473 18.53175,-4.73524 22.62945,-15.97729 25.96152,-17.31228 30.54523,-12.24733 5.15045,5.69127 6.26128,17.8793 6.31366,70.35634 l 0.0292,50.0708 -54.10452,-0.46768 -54.13375,-0.46767 -6.98595,-3.50759 c -6.33311,-3.16674 -6.96644,-3.90811 -6.78133,-8.00899 0.13609,-3.01568 2.52448,-7.67254 7.16132,-13.97189 10.51537,-14.28532 11.76702,-17.41413 11.72119,-29.31757 -0.0338,-8.59116 -0.72617,-11.7876 -3.94604,-18.15176 -7.49725,-14.81783 -21.86985,-22.1086 -41.5649,-21.07475 -12.59597,0.6612 -21.38706,4.01885 -29.72679,11.34119 -7.21123,6.33162 -10.13281,11.85424 -10.87352,26.0146 -0.73351,14.02474 1.33601,16.95479 9.73355,27.32995 11.62676,14.36464 12.95993,19.90036 5.90444,24.2608 -7.63083,4.71617 -20.3904,5.74426 -70.50249,5.75829 l -47.84933,0.0292 -0.0292,-47.84933 c -0.0355,-61.36275 -1.78709,-74.01559 -10.873517,-77.7515 -5.484089,-2.25458 -11.068868,-0.12871 -23.179301,8.82742 -12.688952,9.38387 -19.897322,11.46813 -31.422129,9.11973 -13.792017,-2.81014 -22.225425,-9.9593 -26.686888,-22.65312 -3.417885,-9.72434 -3.613749,-23.21161 -0.467678,-32.44517 4.552567,-13.3611 20.12438,-24.43619 34.374348,-24.43619 8.360496,0 13.718872,2.41575 28.879129,13.09499 7.19579,5.06898 11.02874,6.86098 14.994932,6.98595 4.987227,0.15695 5.539508,-0.23118 8.447434,-6.10905 4.8545,-9.81208 5.90374,-22.42372 5.93367,-70.88248 0.0216,-35.04013 0.42489,-45.08441 1.78302,-45.16017 0.96033,-0.0539 0.48433,-0.59671 -1.05227,-1.19843 -1.53661,-0.60153 21.42738,-1.42932 51.00615,-1.87071 51.90471,-0.77423 61.85323,-1.60278 66.7026,-5.52445 0.0104,-0.008 0.0189,-0.0208 0.0292,-0.0292 4.09992,-1.97665 3.45701,-5.22163 1.69533,-8.71051 -0.098,-2.04961 -3.81054,-8.39107 -8.97357,-15.31646 -4.38625,-5.88331 -8.65229,-12.58387 -10.20123,-15.95952 -1.29791,-14.49051 1.85742,-28.00219 14.61494,-39.43112 l 0.37999,-0.26307 c 9.87044,-7.04295 18.67275,-10.04549 29.31757,-10.02585 z m 219.34108,95.87404 c 37.22889,0.0117 44.29888,1.18227 49.92465,6.02135 3.47802,2.99165 3.61445,3.49117 2.07532,8.5059 -0.33061,1.07724 -0.56427,1.95223 -0.75998,2.71838 -3.05498,6.1418 -16.07086,18.73586 -17.801,21.45474 -0.006,0.008 0.006,0.0206 0,0.0292 -0.19008,0.23186 -0.36446,0.4095 -0.61383,0.73075 -5.20284,6.70342 -4.6099,27.78069 1.05228,37.38502 6.22246,10.55475 17.39426,18.5889 28.82067,20.75322 10.02494,1.89875 31.29762,-1.42235 36.94657,-5.49522 4.03815,-1.36541 10.98184,-12.32982 12.48117,-15.95951 0.0787,-0.0958 0.15387,-0.16441 0.23383,-0.26307 1.86791,-2.30491 4.47629,-8.17123 5.81675,-13.06576 3.37767,-12.33258 1.51308,-21.07985 -6.86902,-31.9775 -6.81424,-8.8592 -10.46679,-14.60761 -11.66273,-18.35637 l 0.0292,0 c -2.00891,-6.47247 2.6828,-8.30927 7.27824,-9.93816 1.20302,-0.15073 2.75308,-0.44142 4.76447,-0.90613 6.40916,-1.47992 20.15094,-1.83213 60.38895,-1.54918 l 52.08766,0.37999 -0.0585,50.97692 c -0.0612,54.2676 -0.63806,59.6625 -6.81057,66.32262 -5.11752,5.52197 -10.07841,4.24885 -21.89318,-5.6706 -8.96745,-7.52897 -15.91406,-10.28167 -26.0146,-10.31815 -12.1602,-0.0431 -22.01635,4.48972 -29.63911,11.89656 -10.12581,11.938 -15.8545,28.3547 -7.9213,51.26922 0,0 1.06912,2.77408 2.22147,4.03373 9.65709,10.55587 12.65505,13.13675 18.15176,15.63799 4.46876,2.03365 9.32981,2.8961 16.77796,2.95222 17.89205,0.69548 26.98441,-13.75603 38.08654,-18.56098 5.88778,-2.54821 5.70856,-2.34298 9.3828,0.87689 6.05252,5.30406 7.36644,14.15513 8.03822,65.24111 0.51729,39.33325 -1.61868,58.88815 -3.59528,56.85213 -9.72011,-0.18264 -38.36646,-0.20927 -55.06911,-0.26306 l -52.93532,2.07532 c -8.70893,2.1504 -15.77091,5.00081 -16.57335,14.05957 0.006,3.54687 5.24136,9.83476 11.92579,18.0933 2.48917,3.07518 5.64628,7.77534 7.01518,10.4643 3.08387,6.05831 3.1687,18.38275 0.17538,25.54693 -3.87092,6.38481 -5.69782,8.74775 -9.3828,13.03653 -3.40202,2.82437 -7.66636,5.7927 -11.22427,7.39516 -19.69758,8.71312 -44.2368,1.45401 -53.34455,-15.78414 -2.38637,-4.51665 -3.03921,-8.1709 -3.06914,-17.0118 -0.033,-9.81273 0.41053,-11.94469 3.44913,-16.25181 12.45951,-17.65972 14.4955,-21.21407 15.37492,-27.00842 -0.25919,-4.3028 -0.20551,-4.01654 -4.35525,-8.24283 -6.63383,-5.58192 -14.9373,-6.3817 -67.31643,-6.40134 -27.04405,-0.0106 -50.59287,-0.38439 -52.3215,-0.84767 l -3.1276,-0.84767 0,-51.4446 c 0,-31.83532 -0.57861,-54.1584 -1.51995,-58.54746 -1.74183,-8.12152 -7.13925,-15.40416 -11.42889,-15.40416 -4.36269,0 -13.42283,4.78403 -21.16244,11.19505 -3.77444,3.12624 -9.30927,7.10324 -10.37661,6.69365 -8.32212,2.16247 -9.94393,3.02267 -15.78414,2.60146 -3.73497,-0.44243 -9.75015,-2.13252 -13.38729,-3.74143 -9.75394,-5.08585 -13.12511,-8.99406 -17.33332,-18.85328 -2.36664,-5.24912 -3.15683,-9.5766 -3.15683,-17.45024 0,-12.19612 2.51358,-18.87617 11.60427,-30.2237 4.3221,-3.75608 8.58151,-6.51929 13.21191,-8.12591 1.50871,-0.0809 3.57717,-0.28068 5.8752,-0.5846 10.08174,-1.33326 15.76614,0.48503 25.92691,8.38898 4.60963,3.58587 10.26395,7.53897 12.56886,8.76896 0.81182,0.43323 1.78263,0.82304 2.83529,1.13997 1.21,0.62268 2.12947,0.9992 2.57223,0.99382 0.35904,-0.004 0.49444,-0.11497 0.46768,-0.2923 3.82722,0.673 7.80926,0.60935 9.0905,-0.40922 1.20563,0.004 5.29532,-5.25285 6.31365,-7.42439 2.84171,-6.14586 3.01802,-9.03859 3.68297,-60.47664 0.37067,-28.67269 0.96459,-56.50137 0.96459,-56.50137 l 1.13996,0.0585 49.86619,-0.2923 c 6.63294,-0.0383 12.57027,-0.0601 17.88869,-0.0585 z m -76.34847,287.5344 c -0.27998,0.13082 -0.49691,0.70154 -0.49691,1.3738 0,0.7683 0.67706,1.40304 1.49073,1.40304 0.81348,0 1.08861,-0.63474 0.61382,-1.40304 -0.47478,-0.7683 -1.15184,-1.3738 -1.49072,-1.3738 -0.0424,0 -0.0769,-0.0187 -0.11692,0 z"
       id="path3152" />
    <g
       transform="translate(2374.3943,-1021.7001)"
       clip-path="url(#clipPath3088)"
       id="g3178">
      <rect
         ry="47.500511"
         rx="45.359005"
         y="-88.584152"
         x="-131.79572"
         height="793.76569"
         width="742.77722"
         id="rect3180"
         style="opacity:0.52272728;fill:#ffffff;fill-opacity:1;stroke:#ff0000;stroke-width:1.99999964;stroke-miterlimit:4;stroke-opacity:1;stroke-dasharray:none" />
      <path
         style="fill:#5e7cae;fill-opacity:1;stroke:#000000;stroke-width:0.99999982px;stroke-linecap:butt;stroke-linejoin:miter;stroke-opacity:1"
         d="M -430.74884,416.63339 737.7078,481.9237 699.87714,-253.23988 -652.69079,-236.14574 z"
         id="path3182"
         inkscape:connector-curvature="0"
         sodipodi:nodetypes="ccccc" />
      <path
         style="fill:#008000;fill-opacity:1;stroke:#000000;stroke-width:0.99999982px;stroke-linecap:butt;stroke-linejoin:miter;stroke-opacity:1"
         d="m -446.73761,367.64529 95.64267,752.78751 1201.20377,24.6505 C 763.55375,924.75307 890.68963,357.17753 663.80546,366.49577 z"
         id="path3184"
         inkscape:connector-curvature="0"
         sodipodi:nodetypes="ccccc" />
      <path
         inkscape:connector-curvature="0"
         id="path3186"
         d="m 153.49705,331.95555 -229.281819,8.57662 C -43.269281,277.2824 56.199147,228.57974 153.49705,331.95555 z"
         style="fill:#ffffff;stroke:#000000;stroke-width:0.99999982px;stroke-linecap:butt;stroke-linejoin:miter;stroke-opacity:1"
         sodipodi:nodetypes="ccc" />
      <path
         style="fill:#343539;fill-opacity:1;stroke:#000000;stroke-width:0.99999982px;stroke-linecap:butt;stroke-linejoin:miter;stroke-opacity:1"
         d="m 267.18693,21.5742 41.42275,44.73794 9.25627,257.84311 -43.30985,4.26657 z"
         id="path3188"
         inkscape:connector-curvature="0" />
      <path
         style="fill:#ffffff;stroke:#000000;stroke-width:0.99999982px;stroke-linecap:butt;stroke-linejoin:miter;stroke-opacity:1"
         d="m 374.06882,324.88725 128.35369,-4.61612 c 22.22109,-22.22528 49.13608,-53.62265 48.19298,-78.34799 0.59632,-18.22495 -281.50256,5.66328 -257.3848,29.21932 25.86596,25.28894 51.33975,40.13892 80.83813,53.74479 z"
         id="path3190"
         inkscape:connector-curvature="0"
         sodipodi:nodetypes="ccccc" />
      <path
         style="fill:#1f2025;fill-opacity:1;stroke:#000000;stroke-width:0.99999982px;stroke-linecap:butt;stroke-linejoin:miter;stroke-opacity:1"
         d="M 200.92833,26.415701 206.48211,330.41999 253.85273,328.6948 238.57052,53.123234 z"
         id="path3192"
         inkscape:connector-curvature="0"
         sodipodi:nodetypes="ccccc" />
      <path
         style="fill:#76777b;fill-opacity:1;stroke:#000000;stroke-width:0.99999982px;stroke-linecap:butt;stroke-linejoin:miter;stroke-opacity:1"
         d="m 232.10181,329.43425 42.38265,-1.01243 -7.29318,-306.86762 -41.30522,0.884827 z"
         id="path3194"
         inkscape:connector-curvature="0"
         sodipodi:nodetypes="ccccc" />
      <path
         style="fill:#8b8c91;fill-opacity:1;stroke:#000000;stroke-width:0.99999982px;stroke-linecap:butt;stroke-linejoin:miter;stroke-opacity:1"
         d="m 162.66906,26.333269 39.10776,0.08242 4.44807,303.907721 -37.77064,1.74519 z"
         id="path3196"
         inkscape:connector-curvature="0"
         sodipodi:nodetypes="ccccc" />
      <path
         style="fill:#666666;stroke:#000000;stroke-width:0.99999982px;stroke-linecap:butt;stroke-linejoin:miter;stroke-opacity:1"
         d="m -264.19154,346.21003 9.08884,35.09321 919.81256,-10.63176 0,-64.09423 z"
         id="path3198"
         inkscape:connector-curvature="0"
         sodipodi:nodetypes="ccccc" />
      <path
         style="fill:#ffffff;stroke:#000000;stroke-width:0.99999982px;stroke-linecap:butt;stroke-linejoin:miter;stroke-opacity:1"
         d="m -225.08163,395.13164 290.909485,-63.17215 -33.19764,1.58196 -257.999435,54.17114 z"
         id="path3200"
         inkscape:connector-curvature="0"
         sodipodi:nodetypes="ccccc" />
      <path
         style="fill:#808080;stroke:#000000;stroke-width:0.99999982px;stroke-linecap:butt;stroke-linejoin:miter;stroke-opacity:1"
         d="m 65.825557,331.95942 0.0221,5.96467 -290.507137,61.86506 0.21817,-4.66299 z"
         id="path3202"
         inkscape:connector-curvature="0"
         sodipodi:nodetypes="ccccc" />
      <path
         style="fill:#000080;fill-opacity:1;stroke:#000000;stroke-width:0.99999982px;stroke-linecap:butt;stroke-linejoin:miter;stroke-opacity:1"
         d="m -221.89919,461.77712 c 42.2296,10.29831 142.222759,5.37337 129.3763,31.70828 -20.40125,43.34272 154.15451,80.07212 341.65815,97.92263 95.31792,11.05914 380.11399,25.34841 440.44075,2.51996 21.32017,-37.73998 14.38543,-84.14586 12.65397,-130.0972 l -926.3109,-28.39952 c -4.42218,4.03099 -3.90079,25.66174 2.18173,26.34585 z"
         id="path3204"
         inkscape:connector-curvature="0"
         sodipodi:nodetypes="ccccccc" />
    </g>
    <g
       transform="matrix(0.9996194,0,0,0.9996194,-617.58049,-945.19644)"
       clip-path="url(#clipPath3978)"
       id="g3994">
      <rect
         ry="47.518597"
         rx="45.376274"
         y="-88.584152"
         x="-131.79572"
         height="793.76569"
         width="742.77722"
         id="rect3996"
         style="opacity:0.52272728;fill:#ffffff;fill-opacity:1;stroke:#ff0000;stroke-width:2.00076103;stroke-miterlimit:4;stroke-opacity:1;stroke-dasharray:none" />
      <path
         style="fill:#5e7cae;fill-opacity:1;stroke:#000000;stroke-width:1.00038052px;stroke-linecap:butt;stroke-linejoin:miter;stroke-opacity:1"
         d="M -430.74884,416.63339 737.7078,481.9237 699.87714,-253.23988 -652.69079,-236.14574 z"
         id="path3998"
         inkscape:connector-curvature="0"
         sodipodi:nodetypes="ccccc" />
      <path
         style="fill:#008000;fill-opacity:1;stroke:#000000;stroke-width:1.00038052px;stroke-linecap:butt;stroke-linejoin:miter;stroke-opacity:1"
         d="m -446.73761,367.64529 95.64267,752.78751 1201.20377,24.6505 C 763.55375,924.75307 890.68963,357.17753 663.80546,366.49577 z"
         id="path4000"
         inkscape:connector-curvature="0"
         sodipodi:nodetypes="ccccc" />
      <path
         inkscape:connector-curvature="0"
         id="path4002"
         d="m 153.49705,331.95555 -229.281819,8.57662 C -43.269281,277.2824 56.199147,228.57974 153.49705,331.95555 z"
         style="fill:#ffffff;stroke:#000000;stroke-width:1.00038052px;stroke-linecap:butt;stroke-linejoin:miter;stroke-opacity:1"
         sodipodi:nodetypes="ccc" />
      <path
         style="fill:#343539;fill-opacity:1;stroke:#000000;stroke-width:1.00038052px;stroke-linecap:butt;stroke-linejoin:miter;stroke-opacity:1"
         d="m 267.18693,21.5742 41.42275,44.73794 9.25627,257.84311 -43.30985,4.26657 z"
         id="path4004"
         inkscape:connector-curvature="0" />
      <path
         style="fill:#ffffff;stroke:#000000;stroke-width:1.00038052px;stroke-linecap:butt;stroke-linejoin:miter;stroke-opacity:1"
         d="m 374.06882,324.88725 128.35369,-4.61612 c 22.22109,-22.22528 49.13608,-53.62265 48.19298,-78.34799 0.59632,-18.22495 -281.50256,5.66328 -257.3848,29.21932 25.86596,25.28894 51.33975,40.13892 80.83813,53.74479 z"
         id="path4006"
         inkscape:connector-curvature="0"
         sodipodi:nodetypes="ccccc" />
      <path
         style="fill:#1f2025;fill-opacity:1;stroke:#000000;stroke-width:1.00038052px;stroke-linecap:butt;stroke-linejoin:miter;stroke-opacity:1"
         d="M 200.92833,26.415701 206.48211,330.41999 253.85273,328.6948 238.57052,53.123234 z"
         id="path4008"
         inkscape:connector-curvature="0"
         sodipodi:nodetypes="ccccc" />
      <path
         style="fill:#76777b;fill-opacity:1;stroke:#000000;stroke-width:1.00038052px;stroke-linecap:butt;stroke-linejoin:miter;stroke-opacity:1"
         d="m 232.10181,329.43425 42.38265,-1.01243 -7.29318,-306.86762 -41.30522,0.884827 z"
         id="path4010"
         inkscape:connector-curvature="0"
         sodipodi:nodetypes="ccccc" />
      <path
         style="fill:#8b8c91;fill-opacity:1;stroke:#000000;stroke-width:1.00038052px;stroke-linecap:butt;stroke-linejoin:miter;stroke-opacity:1"
         d="m 162.66906,26.333269 39.10776,0.08242 4.44807,303.907721 -37.77064,1.74519 z"
         id="path4012"
         inkscape:connector-curvature="0"
         sodipodi:nodetypes="ccccc" />
      <path
         style="fill:#666666;stroke:#000000;stroke-width:1.00038052px;stroke-linecap:butt;stroke-linejoin:miter;stroke-opacity:1"
         d="m -264.19154,346.21003 9.08884,35.09321 919.81256,-10.63176 0,-64.09423 z"
         id="path4014"
         inkscape:connector-curvature="0"
         sodipodi:nodetypes="ccccc" />
      <path
         style="fill:#ffffff;stroke:#000000;stroke-width:1.00038052px;stroke-linecap:butt;stroke-linejoin:miter;stroke-opacity:1"
         d="m -225.08163,395.13164 290.909485,-63.17215 -33.19764,1.58196 -257.999435,54.17114 z"
         id="path4016"
         inkscape:connector-curvature="0"
         sodipodi:nodetypes="ccccc" />
      <path
         style="fill:#808080;stroke:#000000;stroke-width:1.00038052px;stroke-linecap:butt;stroke-linejoin:miter;stroke-opacity:1"
         d="m 65.825557,331.95942 0.0221,5.96467 -290.507137,61.86506 0.21817,-4.66299 z"
         id="path4018"
         inkscape:connector-curvature="0"
         sodipodi:nodetypes="ccccc" />
      <path
         style="fill:#000080;fill-opacity:1;stroke:#000000;stroke-width:1.00038052px;stroke-linecap:butt;stroke-linejoin:miter;stroke-opacity:1"
         d="m -221.89919,461.77712 c 42.2296,10.29831 142.222759,5.37337 129.3763,31.70828 -20.40125,43.34272 154.15451,80.07212 341.65815,97.92263 95.31792,11.05914 380.11399,25.34841 440.44075,2.51996 21.32017,-37.73998 14.38543,-84.14586 12.65397,-130.0972 l -926.3109,-28.39952 c -4.42218,4.03099 -3.90079,25.66174 2.18173,26.34585 z"
         id="path4020"
         inkscape:connector-curvature="0"
         sodipodi:nodetypes="ccccccc" />
    </g>
  </g>
</svg>
